<?xml version="1.0" encoding="utf-8"?>
<!-- Generator: Adobe Illustrator 28.2.0, SVG Export Plug-In . SVG Version: 6.00 Build 0)  -->
<svg version="1.1" id="Livello_1" xmlns="http://www.w3.org/2000/svg" xmlns:xlink="http://www.w3.org/1999/xlink" x="0px" y="0px"
	 viewBox="0 0 317.6 92.8" style="enable-background:new 0 0 317.6 92.8;" xml:space="preserve">
<style type="text/css">
	.st0{fill:none;}
	.st1{fill:currentcolor;}
</style>
<g>
	<g transform="translate(179.908319, 203.026554)">
	</g>
</g>
<g>
	<g transform="translate(188.217256, 203.026554)">
	</g>
</g>
<g>
	<g transform="translate(196.526192, 203.026554)">
	</g>
</g>
<path class="st0" d="M190.8-34.8"/>
<g>
	<g>
		<path class="st1" d="M7.6,65.7H2.7C1.2,65.7,0,64.5,0,63L0,6.7C0,5.2,1.2,4,2.7,4h4.9c1.5,0,2.7,1.2,2.7,2.7V63
			C10.3,64.5,9.1,65.7,7.6,65.7z"/>
		<path class="st1" d="M31.4,84.5h-4.9c-1.5,0-2.7-1.2-2.7-2.7V25.5c0-1.5,1.2-2.7,2.7-2.7h4.9c1.5,0,2.7,1.2,2.7,2.7v56.2
			C34.2,83.3,32.9,84.5,31.4,84.5z"/>
		<path class="st1" d="M54.9,65.7H50c-1.5,0-2.7-1.2-2.7-2.7V6.7C47.3,5.2,48.5,4,50,4h4.9c1.5,0,2.7,1.2,2.7,2.7V63
			C57.6,64.5,56.4,65.7,54.9,65.7z"/>
	</g>
	<g>
		<path class="st1" d="M305.8,35.9c3,0,6.2,0.7,9.5,2.1l2.3-10c-1.5-0.4-3.5-0.8-5.8-1.2c-2.3-0.3-4.4-0.5-6.3-0.5
			c-5.9,0-10.4,0.9-13.4,2.7c-1.1,0.6-2,1.4-2.8,2.3c-0.6-0.7-1.3-1.4-2.1-2c-2.9-2-7.1-3-12.5-3c-6.9,0-12.3,1.4-16.3,4.2
			c-1.2,0.9-2.3,1.9-3.3,3.2l1.5-6.8h-14.1l-1.9,8.3c-0.3-0.8-0.7-1.5-1.2-2.2c-1.3-2-3.2-3.5-5.6-4.5c-2.4-1-5.1-1.6-8.2-1.6h-16
			h-1.5h-12.4l-4.4,19.3c-0.4,1.7-1,3-1.8,3.7c-0.8,0.7-2.1,1.1-3.8,1.1c-1.4,0-2.4-0.2-3-0.5c-0.6-0.4-0.9-1-0.9-2
			c0-0.6,0.1-1.4,0.3-2.3l4.4-19.3h-10.1h-3.8H144l0,0c-0.6-0.1,0.6,0.1,0,0c-2.3-0.3-6.1-0.5-7.9-0.5c-5.8,0-10.1,0.9-13,2.6
			c-2.9,1.7-4.8,4.5-5.6,8.2c-0.3,1-0.4,2-0.4,3c0,1.9,0.6,3.4,1.7,4.6c1.2,1.2,3,2.3,5.6,3.3c0.9,0.4,1.9,0.7,2.9,1
			c1.1,0.4,1.9,0.7,2.4,0.9c0.4,0.2,0.7,0.5,0.7,0.9c0,0.6-0.4,1-1.1,1.3c-0.7,0.3-1.7,0.5-2.9,0.5c-1.8,0-3.7-0.3-5.8-0.8
			c-2.1-0.5-4-1.2-5.6-2l-2.2,9.7c1.5,0.8,3.3,1.4,5.6,1.8c2.3,0.4,4.8,0.6,7.4,0.6c5.8,0,10.3-0.9,13.2-2.8c3-1.9,4.9-4.6,5.7-8.1
			c0.3-1.4,0.5-2.5,0.5-3.5c0-2-0.7-3.7-2-5c-1.3-1.3-3.5-2.4-6.6-3.3l-1.5-0.4c-1.3-0.4-2.2-0.6-2.7-0.9c-0.5-0.2-0.7-0.5-0.7-0.8
			c0-1,1.6-1.5,4.8-1.5c2.9,0,6.3,0.3,9.6,0.5h-1h5.5l-5.9,26.1h14.4l5.9-26.1h5.8L167.9,48c-0.2,1.1-0.4,2.2-0.4,3.2
			c0,3.6,1.4,6.4,4.3,8.5c2.9,2.1,6.8,3.1,11.8,3.1c6.4,0,11.4-1.2,15.2-3.7c1.6-1.1,3-2.4,4.2-3.9l-1.6,7.1h15.8
			c4.7,0,8.7-0.6,11.8-1.8c2.8-1.1,5.2-2.8,7-5l-1.5,6.8h14.2l1.6-7.3l0,0c0.7,2,1.9,3.6,3.7,4.8c2.9,2,7.1,3,12.4,3
			c6.3,0,11.4-1.2,15.2-3.5l-0.2,1.1c1.5,0.8,3.4,1.4,5.8,1.8c2.4,0.4,4.9,0.6,7.6,0.6c6,0,10.5-1,13.6-2.9c3.1-1.9,5-4.7,5.9-8.3
			c0.3-1.4,0.5-2.6,0.5-3.6c0-2.1-0.7-3.8-2-5.1c-1.3-1.4-3.6-2.5-6.8-3.4l-1.6-0.4c-1.4-0.4-2.3-0.7-2.8-0.9
			c-0.5-0.2-0.7-0.5-0.7-0.8C300.9,36.4,302.5,35.9,305.8,35.9z M227.5,43.5c-0.5,2.1-1.1,3.7-1.8,4.8c-0.7,1.1-1.6,1.9-2.7,2.3
			c-1.1,0.4-2.5,0.6-4.2,0.6h-2.2l3.4-14.9h2.2c2.2,0,3.7,0.2,4.6,0.7c0.9,0.5,1.3,1.5,1.3,2.9C228,40.9,227.8,42.1,227.5,43.5z
			 M276.2,44c-0.6,2.5-1.4,4.3-2.5,5.3c-1.1,1-2.7,1.5-4.7,1.5c-1.7,0-2.8-0.3-3.5-0.8c-0.7-0.5-1-1.4-1-2.7c0-0.8,0.2-2,0.5-3.4
			c0.6-2.5,1.4-4.3,2.5-5.3c1.1-1,2.7-1.5,4.7-1.5c1.7,0,2.8,0.3,3.5,0.8c0.7,0.5,1.1,1.4,1.1,2.7C276.7,41.2,276.6,42.3,276.2,44z
			 M297.8,52.1c-0.7,0.3-1.7,0.5-2.9,0.5c-1.8,0-3.7-0.3-5.9-0.8c-0.4-0.1-0.8-0.2-1.2-0.3c0.8-1.5,1.4-3.1,2-5
			c0.9,0.5,1.9,1,3.1,1.5c0.9,0.4,1.9,0.7,2.9,1c1.2,0.4,2,0.7,2.4,0.9c0.4,0.2,0.7,0.5,0.7,0.9C298.9,51.3,298.6,51.8,297.8,52.1z"
			/>
		<g>
			<path class="st1" d="M185,67.9v0.5h-3.8v2.7h3.4v0.5h-3.4v2.8h3.9v0.5h-4.4v-6.9H185z"/>
			<path class="st1" d="M186.3,67.4v7.4h-0.5v-7.4H186.3z"/>
			<path class="st1" d="M189.9,74.1l0.2,0.3c-0.2,0.1-0.4,0.3-0.6,0.4c-0.2,0.1-0.5,0.1-0.7,0.1c-0.4,0-0.7-0.1-1-0.3
				c-0.3-0.2-0.5-0.4-0.7-0.7c-0.2-0.3-0.3-0.6-0.3-1c0-0.4,0.1-0.7,0.3-1c0.2-0.3,0.4-0.6,0.7-0.7c0.3-0.2,0.7-0.3,1-0.3
				c0.4,0,0.8,0.1,1.1,0.4c0.3,0.3,0.5,0.6,0.7,1.1l-3.2,1.3c0.1,0.3,0.3,0.5,0.6,0.7c0.3,0.2,0.5,0.3,0.9,0.3
				C189.2,74.5,189.5,74.3,189.9,74.1z M187.9,71.5c-0.2,0.1-0.4,0.3-0.6,0.6c-0.1,0.2-0.2,0.5-0.2,0.8c0,0.1,0,0.3,0,0.4l2.8-1.1
				c-0.1-0.3-0.3-0.5-0.5-0.6c-0.2-0.2-0.5-0.2-0.8-0.2C188.5,71.3,188.2,71.3,187.9,71.5z"/>
			<path class="st1" d="M194.1,71l-1.9,4h-0.1l-1.9-4h0.5l1.4,3.1l1.4-3.1H194.1z"/>
			<path class="st1" d="M198,71v3.8h-0.5V74c-0.1,0.2-0.4,0.5-0.7,0.6c-0.3,0.2-0.6,0.3-1,0.3c-0.4,0-0.7-0.1-1-0.2
				c-0.3-0.2-0.5-0.4-0.7-0.7c-0.2-0.3-0.3-0.6-0.3-1c0-0.4,0.1-0.8,0.3-1.1c0.2-0.3,0.4-0.5,0.7-0.7c0.3-0.2,0.7-0.2,1.1-0.2
				c0.3,0,0.6,0.1,0.9,0.3c0.3,0.2,0.5,0.4,0.7,0.7l0-0.8H198z M197,74.1c0.3-0.3,0.5-0.6,0.5-1v-0.5c-0.1-0.4-0.3-0.7-0.6-0.9
				c-0.3-0.2-0.6-0.4-1-0.4c-0.3,0-0.6,0.1-0.8,0.2c-0.2,0.1-0.4,0.3-0.6,0.6c-0.1,0.2-0.2,0.5-0.2,0.8c0,0.3,0.1,0.6,0.2,0.8
				c0.1,0.2,0.3,0.4,0.6,0.6c0.2,0.1,0.5,0.2,0.8,0.2C196.4,74.5,196.7,74.4,197,74.1z"/>
			<path class="st1" d="M199.7,69.3v1.7h1.2v0.4h-1.2v3.4h-0.5v-3.4h-0.8v-0.4h0.8v-1.7H199.7z"/>
			<path class="st1" d="M203.9,74.1l0.2,0.3c-0.2,0.1-0.4,0.3-0.6,0.4c-0.2,0.1-0.5,0.1-0.7,0.1c-0.4,0-0.7-0.1-1-0.3
				c-0.3-0.2-0.5-0.4-0.7-0.7c-0.2-0.3-0.3-0.6-0.3-1c0-0.4,0.1-0.7,0.3-1c0.2-0.3,0.4-0.6,0.7-0.7c0.3-0.2,0.7-0.3,1-0.3
				c0.4,0,0.8,0.1,1.1,0.4c0.3,0.3,0.5,0.6,0.7,1.1l-3.2,1.3c0.1,0.3,0.3,0.5,0.6,0.7s0.5,0.3,0.9,0.3
				C203.2,74.5,203.5,74.3,203.9,74.1z M202,71.5c-0.2,0.1-0.4,0.3-0.6,0.6c-0.1,0.2-0.2,0.5-0.2,0.8c0,0.1,0,0.3,0,0.4l2.8-1.1
				c-0.1-0.3-0.3-0.5-0.5-0.6c-0.2-0.2-0.5-0.2-0.8-0.2C202.5,71.3,202.2,71.3,202,71.5z"/>
			<path class="st1" d="M212.2,67.9l-2.6,4.4v2.5h-0.5v-2.5l-2.6-4.4h0.6l2.2,3.9l2.2-3.9H212.2z"/>
			<path class="st1" d="M211.5,71.9c0.2-0.3,0.4-0.6,0.7-0.7c0.3-0.2,0.7-0.3,1-0.3c0.4,0,0.7,0.1,1,0.3c0.3,0.2,0.6,0.4,0.7,0.7
				c0.2,0.3,0.3,0.6,0.3,1c0,0.4-0.1,0.7-0.3,1c-0.2,0.3-0.4,0.5-0.7,0.7c-0.3,0.2-0.7,0.3-1,0.3s-0.7-0.1-1-0.3
				c-0.3-0.2-0.5-0.4-0.7-0.7c-0.2-0.3-0.3-0.6-0.3-1C211.2,72.5,211.3,72.2,211.5,71.9z M211.9,73.7c0.1,0.2,0.3,0.4,0.6,0.6
				c0.2,0.1,0.5,0.2,0.8,0.2s0.5-0.1,0.8-0.2s0.4-0.3,0.6-0.6c0.1-0.2,0.2-0.5,0.2-0.8c0-0.3-0.1-0.6-0.2-0.8
				c-0.1-0.2-0.3-0.4-0.6-0.6c-0.2-0.1-0.5-0.2-0.8-0.2c-0.3,0-0.6,0.1-0.8,0.2c-0.2,0.2-0.4,0.4-0.6,0.6c-0.1,0.2-0.2,0.5-0.2,0.8
				C211.7,73.2,211.8,73.5,211.9,73.7z"/>
			<path class="st1" d="M219,71v3.8h-0.4l0-0.8c-0.1,0.3-0.3,0.5-0.6,0.7c-0.3,0.2-0.6,0.3-1,0.3c-0.4,0-0.6-0.1-0.9-0.3
				c-0.2-0.2-0.3-0.5-0.3-0.8V71h0.5v2.6c0,0.3,0.1,0.5,0.2,0.6c0.1,0.2,0.4,0.2,0.7,0.3c0.2,0,0.5-0.1,0.7-0.2
				c0.2-0.1,0.4-0.3,0.5-0.5c0.1-0.2,0.2-0.5,0.2-0.8v-2H219z"/>
			<path class="st1" d="M220.9,71.2c0.3-0.2,0.6-0.3,0.9-0.3l0,0.4c-0.3,0-0.5,0.1-0.8,0.2c-0.2,0.1-0.4,0.3-0.6,0.5
				c-0.1,0.2-0.2,0.5-0.2,0.7v2h-0.5V71h0.4l0,0.9C220.4,71.6,220.6,71.4,220.9,71.2z"/>
			<path class="st1" d="M228.2,71.9c0.3,0.3,0.4,0.6,0.4,1.1c0,0.4-0.1,0.7-0.3,1c-0.2,0.3-0.5,0.5-0.8,0.6
				c-0.3,0.1-0.7,0.2-1.1,0.2h-1.8v-6.9h1.5c1.4,0,2.1,0.6,2.1,1.8c0,0.4-0.1,0.7-0.3,1c-0.2,0.3-0.4,0.5-0.8,0.6
				C227.6,71.4,228,71.6,228.2,71.9z M225.1,71.1h1.3c0.5,0,0.8-0.1,1-0.4c0.2-0.3,0.3-0.6,0.3-1c0-0.5-0.1-0.8-0.4-1
				c-0.3-0.2-0.7-0.3-1.2-0.3h-1.1V71.1z M227.6,74c0.3-0.2,0.5-0.6,0.5-1c0-0.5-0.2-0.8-0.5-1.1c-0.3-0.2-0.8-0.4-1.2-0.4h-1.3v2.8
				h1.3C226.9,74.4,227.3,74.2,227.6,74z"/>
			<path class="st1" d="M230.3,71.2c0.3-0.2,0.6-0.3,0.9-0.3l0,0.4c-0.3,0-0.5,0.1-0.8,0.2c-0.2,0.1-0.4,0.3-0.6,0.5
				c-0.1,0.2-0.2,0.5-0.2,0.7v2h-0.5V71h0.4l0,0.9C229.8,71.6,230,71.4,230.3,71.2z"/>
			<path class="st1" d="M235.3,71v3.8h-0.5V74c-0.1,0.2-0.4,0.5-0.7,0.6c-0.3,0.2-0.6,0.3-1,0.3c-0.4,0-0.7-0.1-1-0.2
				c-0.3-0.2-0.5-0.4-0.7-0.7c-0.2-0.3-0.3-0.6-0.3-1c0-0.4,0.1-0.8,0.3-1.1c0.2-0.3,0.4-0.5,0.7-0.7c0.3-0.2,0.7-0.2,1.1-0.2
				c0.3,0,0.6,0.1,0.9,0.3c0.3,0.2,0.5,0.4,0.7,0.7l0-0.8H235.3z M234.4,74.1c0.3-0.3,0.5-0.6,0.5-1v-0.5c-0.1-0.4-0.3-0.7-0.6-0.9
				c-0.3-0.2-0.6-0.4-1-0.4c-0.3,0-0.6,0.1-0.8,0.2c-0.2,0.1-0.4,0.3-0.6,0.6c-0.1,0.2-0.2,0.5-0.2,0.8c0,0.3,0.1,0.6,0.2,0.8
				c0.1,0.2,0.3,0.4,0.6,0.6c0.2,0.1,0.5,0.2,0.8,0.2C233.7,74.5,234.1,74.4,234.4,74.1z"/>
			<path class="st1" d="M239.1,71.2c0.2,0.2,0.3,0.5,0.4,0.8v2.8H239v-2.6c0-0.3-0.1-0.5-0.2-0.6c-0.1-0.2-0.4-0.2-0.6-0.2
				c-0.3,0-0.5,0.1-0.7,0.2c-0.2,0.1-0.4,0.3-0.5,0.5c-0.1,0.2-0.2,0.5-0.2,0.8v2h-0.5V71h0.4l0,0.8c0.1-0.3,0.3-0.5,0.6-0.7
				c0.3-0.2,0.6-0.3,1-0.3C238.6,70.9,238.9,71,239.1,71.2z"/>
			<path class="st1" d="M244,67.4v7.4h-0.5V74c-0.2,0.3-0.4,0.5-0.7,0.6c-0.3,0.2-0.6,0.2-1,0.2c-0.4,0-0.7-0.1-1-0.3
				c-0.3-0.2-0.5-0.4-0.7-0.7c-0.2-0.3-0.3-0.7-0.3-1c0-0.4,0.1-0.7,0.3-1.1c0.2-0.3,0.4-0.5,0.7-0.7c0.3-0.2,0.6-0.2,1-0.2
				c0.3,0,0.7,0.1,1,0.2c0.3,0.2,0.5,0.4,0.7,0.6v-4.4H244z M243.1,74.1c0.3-0.3,0.5-0.6,0.5-1v-0.5c-0.1-0.4-0.3-0.7-0.6-0.9
				c-0.3-0.2-0.6-0.4-1-0.4c-0.3,0-0.6,0.1-0.8,0.2c-0.2,0.1-0.4,0.3-0.6,0.6c-0.1,0.2-0.2,0.5-0.2,0.8c0,0.3,0.1,0.6,0.2,0.8
				c0.1,0.2,0.3,0.4,0.6,0.6c0.2,0.1,0.5,0.2,0.8,0.2C242.4,74.5,242.8,74.3,243.1,74.1z"/>
			<path class="st1" d="M244.6,76h-0.4l0.7-2h0.5L244.6,76z"/>
			<path class="st1" d="M248.7,67.9v6.9h-0.5v-6.9H248.7z"/>
			<path class="st1" d="M253.6,71v3.9c0,0.5-0.2,0.9-0.5,1.3c-0.3,0.3-0.9,0.5-1.6,0.5c-0.3,0-0.6-0.1-0.9-0.2
				c-0.3-0.1-0.6-0.3-0.9-0.6l0.3-0.3c0.3,0.3,0.5,0.4,0.7,0.5c0.2,0.1,0.5,0.2,0.7,0.2c0.6,0,1-0.1,1.2-0.4s0.4-0.6,0.4-1l0-0.9
				c-0.2,0.3-0.4,0.5-0.7,0.7c-0.3,0.2-0.6,0.3-1,0.3c-0.4,0-0.7-0.1-1-0.3c-0.3-0.2-0.5-0.4-0.7-0.7c-0.2-0.3-0.3-0.6-0.3-1
				c0-0.4,0.1-0.7,0.3-1c0.2-0.3,0.4-0.5,0.7-0.7c0.3-0.2,0.7-0.3,1-0.3c0.3,0,0.6,0.1,1,0.2c0.3,0.2,0.5,0.4,0.7,0.7l0-0.8H253.6z
				 M252.3,74.3c0.2-0.1,0.4-0.3,0.6-0.5c0.1-0.2,0.2-0.4,0.3-0.7v-0.6c-0.1-0.4-0.3-0.7-0.6-0.9c-0.3-0.2-0.6-0.4-1-0.4
				c-0.3,0-0.6,0.1-0.8,0.2c-0.2,0.1-0.4,0.3-0.6,0.6c-0.1,0.2-0.2,0.5-0.2,0.8c0,0.3,0.1,0.6,0.2,0.8c0.1,0.2,0.3,0.4,0.6,0.6
				c0.2,0.1,0.5,0.2,0.8,0.2C251.8,74.5,252.1,74.4,252.3,74.3z"/>
			<path class="st1" d="M257.3,71.2c0.2,0.2,0.3,0.5,0.4,0.8v2.8h-0.5v-2.6c0-0.3-0.1-0.5-0.2-0.6c-0.1-0.2-0.4-0.2-0.6-0.2
				c-0.3,0-0.5,0.1-0.7,0.2c-0.2,0.1-0.4,0.3-0.5,0.5c-0.1,0.2-0.2,0.5-0.2,0.8v2h-0.5V71h0.4l0,0.8c0.1-0.3,0.3-0.5,0.6-0.7
				c0.3-0.2,0.6-0.3,1-0.3C256.8,70.9,257.1,71,257.3,71.2z"/>
			<path class="st1" d="M258.5,69.4c0.1-0.1,0.1-0.1,0.2-0.1c0.1,0,0.2,0,0.2,0.1c0.1,0.1,0.1,0.1,0.1,0.2c0,0.1,0,0.2-0.1,0.2
				c-0.1,0.1-0.1,0.1-0.2,0.1c-0.1,0-0.2,0-0.2-0.1c-0.1-0.1-0.1-0.1-0.1-0.2C258.4,69.5,258.5,69.4,258.5,69.4z M259,71v3.8h-0.5
				V71H259z"/>
			<path class="st1" d="M260.7,69.3v1.7h1.2v0.4h-1.2v3.4h-0.5v-3.4h-0.8v-0.4h0.8v-1.7H260.7z"/>
			<path class="st1" d="M264.9,74.1l0.2,0.3c-0.2,0.1-0.4,0.3-0.6,0.4c-0.2,0.1-0.5,0.1-0.7,0.1c-0.4,0-0.7-0.1-1-0.3
				c-0.3-0.2-0.5-0.4-0.7-0.7c-0.2-0.3-0.3-0.6-0.3-1c0-0.4,0.1-0.7,0.3-1c0.2-0.3,0.4-0.6,0.7-0.7c0.3-0.2,0.7-0.3,1-0.3
				c0.4,0,0.8,0.1,1.1,0.4c0.3,0.3,0.5,0.6,0.7,1.1l-3.2,1.3c0.1,0.3,0.3,0.5,0.6,0.7s0.5,0.3,0.9,0.3
				C264.2,74.5,264.5,74.3,264.9,74.1z M263,71.5c-0.2,0.1-0.4,0.3-0.6,0.6c-0.1,0.2-0.2,0.5-0.2,0.8c0,0.1,0,0.3,0,0.4l2.8-1.1
				c-0.1-0.3-0.3-0.5-0.5-0.6c-0.2-0.2-0.5-0.2-0.8-0.2C263.5,71.3,263.2,71.3,263,71.5z"/>
			<path class="st1" d="M273.2,67.9l-2.6,4.4v2.5h-0.5v-2.5l-2.6-4.4h0.6l2.2,3.9l2.2-3.9H273.2z"/>
			<path class="st1" d="M272.5,71.9c0.2-0.3,0.4-0.6,0.7-0.7c0.3-0.2,0.7-0.3,1-0.3c0.4,0,0.7,0.1,1,0.3c0.3,0.2,0.6,0.4,0.7,0.7
				c0.2,0.3,0.3,0.6,0.3,1c0,0.4-0.1,0.7-0.3,1c-0.2,0.3-0.4,0.5-0.7,0.7c-0.3,0.2-0.7,0.3-1,0.3s-0.7-0.1-1-0.3
				c-0.3-0.2-0.5-0.4-0.7-0.7c-0.2-0.3-0.3-0.6-0.3-1C272.2,72.5,272.3,72.2,272.5,71.9z M272.9,73.7c0.1,0.2,0.3,0.4,0.6,0.6
				c0.2,0.1,0.5,0.2,0.8,0.2c0.3,0,0.5-0.1,0.8-0.2c0.2-0.1,0.4-0.3,0.6-0.6c0.1-0.2,0.2-0.5,0.2-0.8c0-0.3-0.1-0.6-0.2-0.8
				c-0.1-0.2-0.3-0.4-0.6-0.6c-0.2-0.1-0.5-0.2-0.8-0.2c-0.3,0-0.6,0.1-0.8,0.2c-0.2,0.2-0.4,0.4-0.6,0.6c-0.1,0.2-0.2,0.5-0.2,0.8
				C272.7,73.2,272.8,73.5,272.9,73.7z"/>
			<path class="st1" d="M280,71v3.8h-0.4l0-0.8c-0.1,0.3-0.3,0.5-0.6,0.7c-0.3,0.2-0.6,0.3-1,0.3c-0.4,0-0.6-0.1-0.9-0.3
				c-0.2-0.2-0.3-0.5-0.3-0.8V71h0.5v2.6c0,0.3,0.1,0.5,0.2,0.6c0.1,0.2,0.4,0.2,0.7,0.3c0.2,0,0.5-0.1,0.7-0.2
				c0.2-0.1,0.4-0.3,0.5-0.5c0.1-0.2,0.2-0.5,0.2-0.8v-2H280z"/>
			<path class="st1" d="M281.9,71.2c0.3-0.2,0.6-0.3,0.9-0.3l0,0.4c-0.3,0-0.5,0.1-0.8,0.2c-0.2,0.1-0.4,0.3-0.6,0.5
				c-0.1,0.2-0.2,0.5-0.2,0.7v2h-0.5V71h0.4l0,0.9C281.4,71.6,281.6,71.4,281.9,71.2z"/>
			<path class="st1" d="M288.3,68.4c-0.3-0.1-0.6-0.1-0.8-0.1c-0.5,0-0.8,0.1-1.1,0.3c-0.3,0.2-0.4,0.5-0.4,0.9
				c0,0.2,0.1,0.5,0.2,0.6c0.1,0.2,0.3,0.3,0.6,0.4c0.2,0.1,0.5,0.2,0.9,0.4c0.4,0.1,0.7,0.3,1,0.4c0.3,0.1,0.5,0.4,0.6,0.6
				c0.2,0.3,0.3,0.6,0.3,1c0,0.4-0.1,0.7-0.3,1c-0.2,0.3-0.4,0.5-0.8,0.7c-0.3,0.2-0.7,0.2-1.1,0.2c-0.7,0-1.5-0.2-2.2-0.7l0.2-0.4
				c0.2,0.2,0.5,0.3,0.9,0.5c0.4,0.1,0.7,0.2,1,0.2c0.3,0,0.6-0.1,0.8-0.2c0.3-0.1,0.5-0.3,0.6-0.5c0.2-0.2,0.2-0.5,0.2-0.8
				c0-0.3-0.1-0.6-0.2-0.8c-0.2-0.2-0.3-0.4-0.6-0.5c-0.2-0.1-0.5-0.3-0.9-0.4c-0.4-0.1-0.7-0.3-1-0.4c-0.3-0.1-0.5-0.3-0.6-0.5
				c-0.2-0.2-0.3-0.5-0.3-0.8c0-0.3,0.1-0.6,0.2-0.9c0.2-0.2,0.4-0.4,0.7-0.6c0.3-0.1,0.6-0.2,1-0.2c0.3,0,0.6,0,1,0.1
				c0.3,0.1,0.6,0.2,0.9,0.3l-0.2,0.4C288.8,68.6,288.6,68.5,288.3,68.4z"/>
			<path class="st1" d="M293.4,71v3.8H293l0-0.8c-0.1,0.3-0.3,0.5-0.6,0.7c-0.3,0.2-0.6,0.3-1,0.3c-0.4,0-0.6-0.1-0.9-0.3
				c-0.2-0.2-0.3-0.5-0.3-0.8V71h0.5v2.6c0,0.3,0.1,0.5,0.2,0.6c0.1,0.2,0.4,0.2,0.7,0.3c0.2,0,0.5-0.1,0.7-0.2
				c0.2-0.1,0.4-0.3,0.5-0.5c0.1-0.2,0.2-0.5,0.2-0.8v-2H293.4z"/>
			<path class="st1" d="M296.6,74.8c-0.2,0.1-0.5,0.1-0.7,0.1c-0.4,0-0.7-0.1-1-0.3c-0.3-0.2-0.5-0.4-0.7-0.7
				c-0.2-0.3-0.3-0.6-0.3-1c0-0.4,0.1-0.7,0.3-1c0.2-0.3,0.4-0.5,0.7-0.7s0.6-0.3,1-0.3c0.5,0,1,0.1,1.3,0.4l-0.2,0.3
				c-0.3-0.3-0.7-0.4-1.1-0.4c-0.3,0-0.5,0.1-0.8,0.2c-0.2,0.1-0.4,0.3-0.6,0.6c-0.1,0.2-0.2,0.5-0.2,0.8s0.1,0.6,0.2,0.8
				c0.1,0.2,0.3,0.4,0.6,0.6c0.2,0.1,0.5,0.2,0.8,0.2c0.4,0,0.7-0.1,1-0.3l0.3,0.3C297,74.6,296.8,74.7,296.6,74.8z"/>
			<path class="st1" d="M299.9,74.8c-0.2,0.1-0.5,0.1-0.7,0.1c-0.4,0-0.7-0.1-1-0.3c-0.3-0.2-0.5-0.4-0.7-0.7s-0.3-0.6-0.3-1
				c0-0.4,0.1-0.7,0.3-1c0.2-0.3,0.4-0.5,0.7-0.7c0.3-0.2,0.6-0.3,1-0.3c0.5,0,1,0.1,1.3,0.4l-0.2,0.3c-0.3-0.3-0.7-0.4-1.1-0.4
				c-0.3,0-0.5,0.1-0.8,0.2c-0.2,0.1-0.4,0.3-0.6,0.6c-0.1,0.2-0.2,0.5-0.2,0.8s0.1,0.6,0.2,0.8c0.1,0.2,0.3,0.4,0.6,0.6
				c0.2,0.1,0.5,0.2,0.8,0.2c0.4,0,0.7-0.1,1-0.3l0.3,0.3C300.3,74.6,300.1,74.7,299.9,74.8z"/>
			<path class="st1" d="M303.6,74.1l0.2,0.3c-0.2,0.1-0.4,0.3-0.6,0.4c-0.2,0.1-0.5,0.1-0.7,0.1c-0.4,0-0.7-0.1-1-0.3
				c-0.3-0.2-0.5-0.4-0.7-0.7c-0.2-0.3-0.3-0.6-0.3-1c0-0.4,0.1-0.7,0.3-1c0.2-0.3,0.4-0.6,0.7-0.7c0.3-0.2,0.7-0.3,1-0.3
				c0.4,0,0.8,0.1,1.1,0.4c0.3,0.3,0.5,0.6,0.7,1.1l-3.2,1.3c0.1,0.3,0.3,0.5,0.6,0.7c0.3,0.2,0.5,0.3,0.9,0.3
				C302.9,74.5,303.3,74.3,303.6,74.1z M301.7,71.5c-0.2,0.1-0.4,0.3-0.6,0.6c-0.1,0.2-0.2,0.5-0.2,0.8c0,0.1,0,0.3,0,0.4l2.8-1.1
				c-0.1-0.3-0.3-0.5-0.5-0.6c-0.2-0.2-0.5-0.2-0.8-0.2C302.2,71.3,302,71.3,301.7,71.5z"/>
			<path class="st1" d="M304.9,74.8c-0.2-0.1-0.4-0.2-0.6-0.4l0.2-0.3c0.1,0.1,0.3,0.2,0.5,0.3s0.4,0.1,0.6,0.1
				c0.2,0,0.5-0.1,0.6-0.2c0.2-0.1,0.3-0.3,0.3-0.5c0-0.2,0-0.3-0.1-0.4c-0.1-0.1-0.2-0.2-0.3-0.2s-0.3-0.1-0.6-0.2
				c-0.3-0.1-0.5-0.2-0.7-0.4c-0.2-0.2-0.2-0.4-0.2-0.6c0-0.3,0.1-0.6,0.3-0.8c0.2-0.2,0.5-0.3,0.8-0.3c0.5,0,0.8,0.1,1.1,0.4
				l-0.2,0.3c-0.1-0.1-0.2-0.2-0.4-0.3c-0.2-0.1-0.3-0.1-0.5-0.1c-0.2,0-0.4,0.1-0.5,0.2c-0.2,0.1-0.2,0.3-0.2,0.5
				c0,0.2,0.1,0.4,0.2,0.5c0.1,0.1,0.4,0.2,0.7,0.3c0.4,0.1,0.6,0.2,0.8,0.4c0.2,0.1,0.3,0.4,0.3,0.7c0,0.4-0.1,0.6-0.3,0.8
				c-0.2,0.2-0.5,0.3-1,0.3C305.4,74.9,305.1,74.8,304.9,74.8z"/>
			<path class="st1" d="M307.6,74.8c-0.2-0.1-0.4-0.2-0.6-0.4l0.2-0.3c0.1,0.1,0.3,0.2,0.5,0.3s0.4,0.1,0.6,0.1
				c0.2,0,0.5-0.1,0.6-0.2c0.2-0.1,0.3-0.3,0.3-0.5c0-0.2,0-0.3-0.1-0.4c-0.1-0.1-0.2-0.2-0.3-0.2c-0.1,0-0.3-0.1-0.6-0.2
				c-0.3-0.1-0.5-0.2-0.7-0.4c-0.2-0.2-0.2-0.4-0.2-0.6c0-0.3,0.1-0.6,0.3-0.8c0.2-0.2,0.5-0.3,0.8-0.3c0.5,0,0.8,0.1,1.1,0.4
				l-0.2,0.3c-0.1-0.1-0.2-0.2-0.4-0.3c-0.2-0.1-0.3-0.1-0.5-0.1c-0.2,0-0.4,0.1-0.5,0.2s-0.2,0.3-0.2,0.5c0,0.2,0.1,0.4,0.2,0.5
				c0.1,0.1,0.4,0.2,0.7,0.3c0.4,0.1,0.6,0.2,0.8,0.4c0.2,0.1,0.3,0.4,0.3,0.7c0,0.4-0.1,0.6-0.3,0.8c-0.2,0.2-0.5,0.3-1,0.3
				C308.1,74.9,307.8,74.8,307.6,74.8z"/>
			<path class="st1" d="M310,74.5c-0.1-0.1-0.1-0.1-0.1-0.3c0-0.1,0-0.2,0.1-0.2c0.1-0.1,0.2-0.1,0.3-0.1c0.1,0,0.2,0,0.3,0.1
				c0.1,0.1,0.1,0.1,0.1,0.2c0,0.1,0,0.2-0.1,0.3c-0.1,0.1-0.2,0.1-0.3,0.1C310.1,74.6,310,74.6,310,74.5z M310.4,67.5v5.6H310v-5.6
				H310.4z"/>
		</g>
		<g>
			<path class="st1" d="M78.3,59.7c-3.1-0.6-5.6-1.2-7.2-2l2.7-13.4c1.7,1,3.7,1.7,5.9,2.2c2.3,0.5,4.4,0.7,6.4,0.7
				c2,0,3.5-0.2,4.5-0.6c1-0.4,1.6-1.2,1.8-2.4c0.1-0.8-0.1-1.4-0.6-1.8s-1.5-0.7-2.9-0.7h-8.1l3.3-11.2h6.6c1.3,0,2.3-0.2,2.9-0.6
				c0.6-0.4,1-1.1,1.2-2.1c0.2-0.8-0.1-1.4-0.9-1.9c-0.8-0.5-2.1-0.7-4-0.7c-2.1,0-4.3,0.3-6.5,0.8c-2.3,0.5-4.2,1.2-5.9,2.1
				l2.7-13.3c2.1-0.9,4.6-1.6,7.5-2.1c2.8-0.5,5.6-0.8,8.3-0.8c5.5,0,9.6,1,12.4,3c2.8,2,4.1,4.7,4.1,8.2c0,0.8-0.1,1.8-0.3,2.9
				c-0.8,4.1-2.6,7.5-5.5,10.1c1.8,1.4,2.7,3.4,2.7,6.2c0,0.8-0.1,1.8-0.3,3.1c-2,10-9.6,15-22.8,15C84.1,60.6,81.4,60.3,78.3,59.7z
				"/>
		</g>
	</g>
</g>
</svg>
