<?xml version="1.0" encoding="utf-8"?>
<!-- Generator: Adobe Illustrator 28.2.0, SVG Export Plug-In . SVG Version: 6.00 Build 0)  -->
<svg version="1.1" id="Livello_1" xmlns="http://www.w3.org/2000/svg" xmlns:xlink="http://www.w3.org/1999/xlink" x="0px" y="0px"
	 viewBox="0 0 317.6 92.8" style="enable-background:new 0 0 317.6 92.8;" xml:space="preserve">
<style type="text/css">
	.st0{fill:#38B6FF;}
	.st1{fill:currentcolor;}
	.st2{fill:none;}
</style>
<g>
	<g transform="translate(179.908319, 203.026554)">
	</g>
</g>
<g>
	<g transform="translate(188.217256, 203.026554)">
	</g>
</g>
<g>
	<g transform="translate(196.526192, 203.026554)">
	</g>
</g>
<g transform="matrix(1, 0, 0, 1, 155, 217)">
	<g>
		<g>
			<g transform="translate(0.642201, 8.132145)">
				<g>
					<path class="st0" d="M-48.2-135.9v-9.4h3.2c0.7,0,1.3,0.1,1.8,0.4c0.5,0.3,0.8,0.6,1,1.1c0.2,0.4,0.3,0.9,0.3,1.5
						s-0.1,1.1-0.3,1.5s-0.6,0.8-1,1.1c-0.5,0.3-1.1,0.4-1.8,0.4h-2.1v3.4H-48.2z M-47.1-140.4h2c0.8,0,1.3-0.2,1.6-0.6
						c0.3-0.4,0.5-0.9,0.5-1.4c0-0.6-0.2-1-0.5-1.4s-0.9-0.6-1.6-0.6h-2V-140.4z"/>
				</g>
			</g>
		</g>
		<g>
			<g transform="translate(9.643885, 8.132145)">
				<g>
					<path class="st0" d="M-32.6-140.6c0,1-0.2,1.9-0.6,2.6c-0.3,0.7-0.8,1.3-1.5,1.7c-0.6,0.4-1.3,0.6-2.1,0.6s-1.5-0.2-2.2-0.6
						c-0.6-0.4-1.1-0.9-1.5-1.7c-0.3-0.7-0.5-1.6-0.5-2.6s0.2-1.8,0.5-2.6c0.4-0.7,0.9-1.3,1.5-1.7s1.4-0.6,2.2-0.6s1.5,0.2,2.1,0.6
						c0.6,0.4,1.1,0.9,1.5,1.7C-32.8-142.5-32.6-141.6-32.6-140.6z M-33.7-140.6c0-0.8-0.1-1.5-0.4-2.1c-0.3-0.6-0.6-1-1.1-1.3
						s-1-0.4-1.5-0.4c-0.6,0-1.1,0.1-1.6,0.4s-0.8,0.7-1.1,1.3s-0.4,1.2-0.4,2.1s0.1,1.5,0.4,2.1c0.3,0.6,0.6,1,1.1,1.3
						s1,0.4,1.6,0.4s1.1-0.1,1.5-0.4c0.5-0.3,0.8-0.7,1.1-1.3C-33.8-139.1-33.7-139.8-33.7-140.6z"/>
				</g>
			</g>
		</g>
		<g>
			<g transform="translate(19.530513, 8.132145)">
				<g>
					<path class="st0" d="M-26.9-143c-0.1-0.5-0.3-0.8-0.7-1.1c-0.4-0.2-0.9-0.4-1.4-0.4c-0.6,0-1.1,0.1-1.5,0.4
						c-0.4,0.3-0.6,0.7-0.6,1.1c0,0.3,0.1,0.6,0.3,0.8c0.2,0.2,0.4,0.4,0.7,0.5c0.3,0.1,0.6,0.2,0.8,0.3l1,0.3
						c0.2,0.1,0.5,0.1,0.8,0.3c0.3,0.1,0.6,0.3,0.9,0.5s0.5,0.4,0.7,0.8c0.2,0.3,0.3,0.7,0.3,1.1c0,0.5-0.1,1-0.4,1.4
						s-0.6,0.7-1.2,1c-0.5,0.2-1.1,0.3-1.8,0.3c-1,0-1.8-0.2-2.4-0.7c-0.6-0.5-0.9-1.1-1-1.9h1.2c0,0.3,0.2,0.6,0.4,0.9
						c0.2,0.2,0.5,0.4,0.8,0.5s0.7,0.2,1.1,0.2s0.8-0.1,1.2-0.2c0.3-0.2,0.6-0.4,0.8-0.6c0.2-0.2,0.3-0.6,0.3-0.9
						c0-0.3-0.1-0.6-0.3-0.8c-0.2-0.2-0.4-0.4-0.7-0.5c-0.3-0.1-0.6-0.2-0.9-0.3l-1.2-0.3c-0.7-0.2-1.3-0.5-1.8-0.9
						c-0.4-0.4-0.6-0.9-0.6-1.5c0-0.5,0.1-1,0.4-1.4c0.3-0.4,0.7-0.7,1.2-0.9s1.1-0.3,1.7-0.3s1.1,0.1,1.6,0.3s0.9,0.5,1.1,0.9
						c0.3,0.4,0.4,0.8,0.5,1.3h-1.3V-143z"/>
				</g>
			</g>
		</g>
		<g>
			<g transform="translate(28.552082, 8.132145)">
			</g>
		</g>
		<g>
			<g transform="translate(35.077919, 8.132145)">
				<g>
					<path class="st0" d="M-18.4-135.9h-1.2l3.5-9.4h1.2l3.4,9.4h-1.2l-1-2.7h-3.8L-18.4-135.9z M-17.1-139.6h3.1l-1.5-4.3h-0.1
						L-17.1-139.6z"/>
				</g>
			</g>
		</g>
		<g>
			<g transform="translate(44.367956, 8.132145)">
				<g>
					<path class="st0" d="M-10.9-135.9v-9.4h3.2c0.7,0,1.3,0.1,1.8,0.4c0.5,0.3,0.8,0.6,1,1.1c0.2,0.4,0.3,0.9,0.3,1.5
						s-0.1,1.1-0.3,1.5c-0.2,0.4-0.6,0.8-1,1.1c-0.5,0.3-1.1,0.4-1.8,0.4h-2.1v3.4H-10.9z M-9.7-140.4h2c0.8,0,1.3-0.2,1.6-0.6
						c0.3-0.4,0.5-0.9,0.5-1.4c0-0.6-0.2-1-0.5-1.4s-0.9-0.6-1.6-0.6h-2V-140.4z"/>
				</g>
			</g>
		</g>
		<g>
			<g transform="translate(53.369639, 8.132145)">
				<g>
					<path class="st0" d="M-3.2-135.9v-9.4H0c0.7,0,1.3,0.1,1.8,0.4c0.5,0.3,0.8,0.6,1,1.1c0.2,0.4,0.3,0.9,0.3,1.5
						s-0.1,1.1-0.3,1.5s-0.6,0.8-1,1.1c-0.5,0.3-1.1,0.4-1.8,0.4h-2v3.4H-3.2z M-2-140.4h2c0.8,0,1.3-0.2,1.6-0.6
						c0.3-0.4,0.5-0.9,0.5-1.4c0-0.6-0.2-1-0.5-1.4s-0.9-0.6-1.6-0.6h-2V-140.4z"/>
				</g>
			</g>
		</g>
		<g>
			<g transform="translate(62.37662, 8.132145)">
			</g>
		</g>
	</g>
</g>
<g>
	<g transform="translate(67.420042, 203.026554)">
		<g>
			<path class="st1" d="M-65.5-136v-9.4l26.1-35.9h-25.2V-193h42v9.4l-26,35.9H-22v11.7L-65.5-136L-65.5-136z"/>
		</g>
	</g>
</g>
<g>
	<g transform="translate(99.130897, 203.026554)">
		<g>
			<path class="st1" d="M-31.9-134.9c-4.6,0-8.6-1-12.1-2.9s-6.2-4.5-8.2-7.9c-1.9-3.4-2.9-7.3-2.9-11.8c0-4.4,1-8.3,3-11.7
				s4.7-6,8.2-7.9s7.6-2.9,12.2-2.9c4.9,0,9.1,1.1,12.7,3.3s6.3,5.2,8.1,9.1c1.9,3.9,2.7,8.5,2.4,13.7h-34.3
				c0.6,2.9,1.9,5.2,3.9,6.8c2,1.5,4.4,2.3,7.2,2.3c2.1,0,4-0.4,5.7-1.2s3.1-1.9,4.1-3.3h12.6c-1.8,4.5-4.8,8-8.7,10.6
				C-22-136.2-26.6-134.9-31.9-134.9z M-42.7-161.7h22.2c-0.7-2.6-2-4.7-4-6.1c-1.9-1.5-4.3-2.2-7.2-2.2c-2.7,0-5.1,0.8-7.1,2.2
				C-40.7-166.4-42-164.3-42.7-161.7z"/>
		</g>
	</g>
</g>
<g>
	<g transform="translate(167.379633, 203.026554)">
		<g>
			<path class="st1" d="M-29.4-136v-42.8H-17v42.8H-29.4z M-31.2-192.7c0-2.3,0.7-4.1,2.2-5.6c1.5-1.4,3.4-2.2,5.8-2.2
				s4.3,0.7,5.8,2.2c1.5,1.4,2.2,3.3,2.2,5.6s-0.7,4.1-2.2,5.6c-1.5,1.4-3.4,2.1-5.8,2.1c-2.3,0-4.2-0.7-5.8-2.1
				C-30.4-188.5-31.2-190.4-31.2-192.7z"/>
		</g>
	</g>
</g>
<g>
	<g transform="translate(204.845818, 203.026554)">
		<g>
			<path class="st1" d="M-16.2-136v-57H6.1c4.6,0,8.6,0.8,12,2.5s6,4.1,7.9,7.2c1.9,3.1,2.8,6.7,2.8,10.9c0,4.1-0.9,7.7-2.8,10.8
				s-4.5,5.5-7.9,7.2s-7.4,2.5-12,2.5h-9.4v15.9L-16.2-136L-16.2-136z M-3.4-163.1H5c3.4,0,6-0.8,7.8-2.4c1.8-1.6,2.7-3.9,2.7-6.9
				s-0.9-5.3-2.7-6.9c-1.8-1.6-4.4-2.5-7.8-2.5h-8.4C-3.4-181.8-3.4-163.1-3.4-163.1z"/>
		</g>
	</g>
</g>
<g>
	<g transform="translate(239.428453, 203.026554)">
		<g>
			<path class="st1" d="M15.7-134.9c-4.7,0-8.9-1-12.5-2.9s-6.4-4.5-8.5-7.9c-2-3.4-3-7.3-3-11.8c0-4.4,1-8.3,3-11.7s4.9-6,8.5-7.9
				S11-180,15.7-180s8.9,1,12.5,2.9s6.4,4.5,8.4,7.9c2,3.4,3,7.3,3,11.7c0,4.5-1,8.4-3,11.8c-2,3.4-4.8,6-8.4,7.9
				S20.4-134.9,15.7-134.9z M3.9-157.5c0,3.5,1.1,6.3,3.3,8.6c2.2,2.2,5,3.3,8.5,3.3s6.3-1.1,8.5-3.3s3.2-5.1,3.2-8.6
				s-1.1-6.4-3.2-8.6c-2.2-2.2-5-3.3-8.5-3.3s-6.3,1.1-8.5,3.3C5-163.9,3.9-161,3.9-157.5z"/>
		</g>
	</g>
</g>
<g>
	<g transform="translate(274.133289, 203.026554)">
		<g>
			<path class="st1" d="M22.7-134.9c-3.9,0-7.3-0.6-10.2-1.9c-2.9-1.2-5.2-3-6.8-5.2s-2.4-4.8-2.4-7.8h12.1c0.1,1.7,0.7,3.1,2,4.2
				c1.3,1,3.1,1.5,5.4,1.5c2,0,3.5-0.4,4.6-1.1c1.1-0.7,1.6-1.7,1.6-3c0-1.4-0.7-2.5-2.2-3.4s-3.8-1.6-7.1-2.2
				c-5.4-1-9.4-2.5-12-4.7c-2.5-2.2-3.8-5-3.8-8.6c0-4.2,1.6-7.4,4.7-9.6c3.1-2.2,7.6-3.4,13.3-3.4s10.2,1.2,13.4,3.7
				c3.2,2.4,5,5.9,5.3,10.4H28.7c-0.1-1.6-0.8-2.9-2-3.8c-1.2-0.9-2.9-1.4-4.9-1.4c-1.8,0-3.3,0.4-4.4,1.1c-1.1,0.7-1.6,1.7-1.6,2.9
				c0,1.3,0.7,2.3,2.1,3.1c1.4,0.7,3.9,1.5,7.5,2.2c10.5,2.1,15.8,6.7,15.8,13.6c0,4.1-1.6,7.3-4.9,9.7
				C33-136.1,28.5-134.9,22.7-134.9z"/>
		</g>
	</g>
</g>
<g>
	<g transform="translate(208.484255, 203.21642)">
		<g>
			<path class="st0" d="M-21.9-137.5l-17.7-11.9l-16.7,12l-0.2-11.2l10-6.9l-5-3.1l-5.3-3.4l-0.2-11.3l17.1,11.3l17.2-12.5l0.2,11.5
				l-5.4,3.8l-4.9,3.4l5,3.2l5.6,3.6L-21.9-137.5z"/>
		</g>
	</g>
</g>
<path class="st1" d="M122.1,43.7v0.6h12.4v-1.9c0-5.9-1.6-10.6-4.8-14.1s-7.6-5.2-13.2-5.2c-2.8,0-5.5,0.5-7.9,1.5
	c-2.5,1-4.6,2.5-6.3,4.5l-1.3-4.8h-9.2V67h12.4V44.6c0-3.4,0.9-6,2.6-8s4-2.9,6.8-2.9c2.7,0,4.7,0.9,6.2,2.7
	C121.4,38.1,122.1,40.5,122.1,43.7z"/>
<polygon class="st0" points="121.9,47.2 117,69.1 129.6,68.7 134.5,46.8 "/>
<line class="st2" x1="121.8" y1="47" x2="134.3" y2="46.6"/>
<line class="st2" x1="116.9" y1="69" x2="121.8" y2="47"/>
<line class="st2" x1="129.5" y1="68.5" x2="116.9" y2="69"/>
<path class="st2" d="M190.8-34.8"/>
</svg>
